P2
10 10
255
36
36
36
36
36
36
36
36
36
36
36
32
32
32
32
32
32
32
32
32
36
16
5
5
5
5
5
5
5
5
36
4
8
8
8
8
8
8
8
8
36
4
8
28
13
13
13
13
13
13
36
4
8
12
8
8
8
8
8
8
36
4
8
12
8
8
27
7
7
7
36
4
8
12
8
3
23
32
32
32
36
4
8
12
8
6
32
32
32
32
36
4
8
12
8
6
32
32
32
36
