P2
10 10
255
0
0
0
0
0
0
0
0
0
0
0
0
0
0
0
0
0
0
0
0
0
0
0
3
2
2
2
2
2
2
0
0
0
1
2
2
2
2
2
2
0
0
0
1
2
2
0
0
0
0
0
0
0
1
2
2
0
0
0
0
0
0
0
1
2
2
0
0
0
0
0
0
0
1
2
2
0
0
0
0
0
0
0
1
2
2
0
0
0
0
0
0
0
1
2
2
0
0
0
0
