P2
10 10
255
0
0
0
0
0
0
0
0
0
0
0
0
0
0
0
0
0
0
0
0
0
0
0
0
0
0
0
0
0
0
0
12
5
5
5
5
5
5
5
5
0
4
8
8
8
8
8
8
8
8
0
4
8
8
8
8
8
8
8
8
0
4
8
8
8
7
7
7
7
7
0
4
8
8
6
0
0
0
0
0
0
4
8
8
6
0
0
0
0
0
0
4
8
8
6
0
0
0
0
0
