<?xml version="1.0" encoding="UTF-8" standalone="no"?>
<!-- Created with Inkscape (http://www.inkscape.org/) -->

<svg
   xmlns:dc="http://purl.org/dc/elements/1.1/"
   xmlns:cc="http://creativecommons.org/ns#"
   xmlns:rdf="http://www.w3.org/1999/02/22-rdf-syntax-ns#"
   xmlns:svg="http://www.w3.org/2000/svg"
   xmlns="http://www.w3.org/2000/svg"
   xmlns:sodipodi="http://sodipodi.sourceforge.net/DTD/sodipodi-0.dtd"
   xmlns:inkscape="http://www.inkscape.org/namespaces/inkscape"
   width="400"
   height="100"
   id="svg6440"
   version="1.1"
   inkscape:version="0.48.4 r9939"
   sodipodi:docname="tiles_1.svg"
   inkscape:export-filename="/home/jm/Documents/programmeren/cpp/sfml/physics/sprites/tiles_1.png"
   inkscape:export-xdpi="90"
   inkscape:export-ydpi="90">
  <defs
     id="defs6442" />
  <sodipodi:namedview
     id="base"
     pagecolor="#ffffff"
     bordercolor="#666666"
     borderopacity="1.0"
     inkscape:pageopacity="0.0"
     inkscape:pageshadow="2"
     inkscape:zoom="1.979899"
     inkscape:cx="282.26415"
     inkscape:cy="-14.69605"
     inkscape:document-units="px"
     inkscape:current-layer="layer1"
     showgrid="false"
     inkscape:snap-nodes="true"
     inkscape:snap-center="false"
     inkscape:snap-global="true"
     inkscape:snap-object-midpoints="false"
     inkscape:snap-midpoints="true"
     inkscape:snap-smooth-nodes="true"
     inkscape:object-nodes="true"
     inkscape:window-width="1916"
     inkscape:window-height="1062"
     inkscape:window-x="0"
     inkscape:window-y="14"
     inkscape:window-maximized="0"
     showguides="true"
     inkscape:guide-bbox="true" />
  <metadata
     id="metadata6445">
    <rdf:RDF>
      <cc:Work
         rdf:about="">
        <dc:format>image/svg+xml</dc:format>
        <dc:type
           rdf:resource="http://purl.org/dc/dcmitype/StillImage" />
        <dc:title />
      </cc:Work>
    </rdf:RDF>
  </metadata>
  <g
     inkscape:label="Layer 1"
     inkscape:groupmode="layer"
     id="layer1"
     transform="translate(0,-952.36218)">
    <rect
       style="fill:#858585;fill-opacity:1;stroke:none"
       id="rect6448"
       width="100"
       height="100"
       x="100"
       y="952.36218" />
    <rect
       style="fill:#ffffff;fill-opacity:1;stroke:none"
       id="rect6958"
       width="10"
       height="100"
       x="100"
       y="952.36218" />
    <rect
       style="fill:#fe0000;fill-opacity:1;stroke:none"
       id="rect6990"
       width="10"
       height="10"
       x="100"
       y="1042.3622" />
    <rect
       style="fill:#fe0000;fill-opacity:1;stroke:none"
       id="rect6990-2"
       width="10"
       height="10"
       x="100"
       y="1022.3622" />
    <rect
       style="fill:#fe0000;fill-opacity:1;stroke:none"
       id="rect6990-4"
       width="10"
       height="10"
       x="100"
       y="982.36218" />
    <rect
       style="fill:#fe0000;fill-opacity:1;stroke:none"
       id="rect6990-6"
       width="10"
       height="10"
       x="100"
       y="1002.3622" />
    <rect
       style="fill:#fe0000;fill-opacity:1;stroke:none"
       id="rect6990-5"
       width="10"
       height="10"
       x="100"
       y="962.36218" />
    <rect
       style="fill:#858585;fill-opacity:1;stroke:none"
       id="rect7075"
       width="100"
       height="100"
       x="200"
       y="952.36218" />
    <path
       style="fill:#858585;fill-opacity:1;stroke:none"
       d="m 400,962.36218 0,90.00002 -90,0 c 0,-53.65491 40.89038,-90.00002 90,-90.00002 z"
       id="rect7075-6"
       inkscape:connector-curvature="0"
       sodipodi:nodetypes="cccc" />
    <path
       style="fill:#fe0000;fill-opacity:1;stroke:none"
       d="m 400,952.36218 c -58.62065,0 -100,40.64966 -100,100.00002 l 10,0 c 0,-51.2863 39.33367,-90.00002 90,-90.00002 z"
       id="path7096"
       inkscape:connector-curvature="0"
       sodipodi:nodetypes="ccccc" />
    <path
       style="fill:#ffffff;fill-opacity:1;stroke:none"
       d="m 301.5024,1032.2978 c -0.57822,3.3723 -1.03565,6.8295 -1.3168,10.3557 l 10.27752,1.3024 c 0.28556,-3.292 0.71087,-6.5244 1.3168,-9.6886 l 0.0963,-0.6671 -10.37387,-1.3024 z"
       id="path7096-6"
       inkscape:connector-curvature="0" />
    <path
       style="fill:#ffffff;fill-opacity:1;stroke:none"
       d="m 307.76688,1010.5809 c -1.30575,3.0808 -2.4648,6.2576 -3.46688,9.5313 l 10.20629,3.25 0.87482,-2.1563 c 0.73615,-2.0253 1.58701,-3.9895 2.46246,-5.9375 l 0.25924,-0.625 0.25919,-0.6875 -10.59512,-3.375 z"
       id="path7096-9"
       inkscape:connector-curvature="0" />
    <path
       style="fill:#ffffff;fill-opacity:1;stroke:none"
       d="m 317.93287,991.53046 c -1.93927,2.91776 -3.75155,5.96636 -5.42675,9.14914 l 9.53931,5.5482 1.31821,-2.0505 c 1.15261,-1.9442 2.40738,-3.8005 3.6834,-5.63481 l 0.38776,-0.59312 0.40056,-0.65798 -9.90249,-5.76093 z"
       id="path7096-9-3"
       inkscape:connector-curvature="0" />
    <path
       style="fill:#ffffff;fill-opacity:1;stroke:none"
       d="m 334.28684,973.88178 c -2.78032,2.36806 -5.46695,4.8992 -8.05049,7.5994 l 8.21326,8.01884 1.90834,-1.67606 c 1.71014,-1.61504 3.50043,-3.11605 5.30637,-4.58967 l 0.5586,-0.4831 0.58946,-0.54379 -8.52554,-8.32562 z"
       id="path7096-9-3-3"
       inkscape:connector-curvature="0" />
    <path
       style="fill:#ffffff;fill-opacity:1;stroke:none"
       d="m 354.21585,960.94005 c -3.27893,1.75983 -6.50132,3.70009 -9.65916,5.82862 l 6.35185,9.62154 2.26184,-1.25793 c 2.05202,-1.23886 4.15809,-2.34853 6.27356,-3.4279 l 0.66039,-0.3608 0.70445,-0.4143 -6.59293,-9.98923 z"
       id="path7096-9-3-0"
       inkscape:connector-curvature="0"
       inkscape:transform-center-x="8.130899"
       inkscape:transform-center-y="-2.670701" />
    <path
       style="fill:#ffffff;fill-opacity:1;stroke:none"
       d="m 367.21821,956.83073 c 0.66307,3.44012 1.50843,6.88449 2.54561,10.32842 l 10.69177,-2.7326 -0.49782,-2.38629 c -0.54135,-2.1944 -0.94825,-4.39774 -1.32456,-6.60031 l -0.13939,-0.69478 -0.17574,-0.75 -11.09987,2.83556 z"
       id="path7096-9-3-5"
       inkscape:connector-curvature="0" />
    <path
       style="fill:#ffffff;fill-opacity:1;stroke:none"
       d="m 390.24372,952.29069 c -0.12176,3.50132 -0.0668,7.04748 0.17527,10.63605 l 11.03198,-0.27641 0.0476,-2.4372 c -0.0377,-2.25987 0.0576,-4.49844 0.18256,-6.72942 l 0.0193,-0.70837 -0.004,-0.7703 -11.45277,0.28565 z"
       id="path7096-9-3-5-3"
       inkscape:connector-curvature="0" />
  </g>
</svg>
